# xmcd
#
# Track frame offsets:
#	150
#	14703
#	34282
#	50260
#	63689
#	83716
#	101945
#	118898
#	134727
#	151304
#	164733
#	177937
#	194816
#	212443
#	227071
#	240049
#	251527
#
# Disc length: 3526 seconds
#
# Revision: 2
# Processed by: cddbd v1.5.2PL0 Copyright (c) Steve Scherf et al.
# Submitted via: audiograbber 1.83.01
#
DISCID=f80dc411
DTITLE=Various Artist - Promo Only Country Radio 2011 - 02
DYEAR=2011
DGENRE=Country
TTITLE0=Trace Adkins - Brown Chicken Brown Cow
TTITLE1=Brad Paisley - This is Country Music
TTITLE2=The Band Perry - You Lie (Single Mix)
TTITLE3=Miranda Lambert - Heart Like Mine (Album Version)
TTITLE4=Kid Rock - Born Free
TTITLE5=Randy Montana - 1,000 Faces
TTITLE6=Rascal Flatts - I Won't Let Go
TTITLE7=Crossin' Dixon - Goodbye to Henry
TTITLE8=Steve Holy - Love Don't Run
TTITLE9=Ashton Sheperd - Look it Up
TTITLE10=Alabama - Are You Sure Hank Done it this Way
TTITLE11=Ricky Skaggs - Someday Soon
TTITLE12=Steel Magnolia - Last Night Again
TTITLE13=David Ball - Hot Water Pipe
TTITLE14=Rachel Timberlake - Honky Tonk Queen
TTITLE15=Aaron Russell - It Don't Get No Better than this
TTITLE16=Guy Penrod - Pray About Everything
EXTD=
EXTT0=
EXTT1=
EXTT2=
EXTT3=
EXTT4=
EXTT5=
EXTT6=
EXTT7=
EXTT8=
EXTT9=
EXTT10=
EXTT11=
EXTT12=
EXTT13=
EXTT14=
EXTT15=
EXTT16=
PLAYORDER=
